<svg width="171" height="112" viewBox="0 0 171 112" fill="none" xmlns="http://www.w3.org/2000/svg">
  <path d="M1 9C1 4.58172 4.58172 1 9 1H162C166.418 1 170 4.58172 170 9V112H85.5H1V9Z" fill="#FFFDFA"/>
  <path d="M170 112V9C170 4.58172 166.418 1 162 1H9C4.58172 1 1 4.58172 1 9V112V9C1 4.58172 4.58172 1 9 1H162C166.418 1 170 4.58172 170 9V112Z" stroke="#C4C4C4" stroke-width="0.5"/>
  <rect x="125" y="9" width="12" height="2" fill="#C4C4C4"/>
  <rect x="140" y="9" width="12" height="2" fill="#C4C4C4"/>
  <rect x="156" y="8.5" width="3" height="3" fill="#C4C4C4"/>
  <rect x="110" y="9" width="12" height="2" fill="#C4C4C4"/>
  <rect x="95" y="9" width="12" height="2" fill="#C4C4C4"/>
  <rect x="8" y="8" width="29" height="4" fill="#C4C4C4" fill-opacity="0.5"/>
  <rect width="169" height="1" transform="matrix(1 0 0 -1 1 17)" fill="#C4C4C4" fill-opacity="0.2"/>
  <rect x="8" y="24" width="20" height="2" fill="#C4C4C4"/>
  <rect x="8" y="28" width="13" height="1" fill="#C4C4C4"/>
  <rect x="8" y="37" width="12" height="1" fill="#C4C4C4"/>
  <rect x="8" y="34" width="9" height="1" fill="#C4C4C4"/>
  <rect x="8" y="31" width="15" height="1" fill="#C4C4C4"/>
  <rect x="36" y="17" width="134" height="30" fill="#C4C4C4"/>
  <rect x="41" y="79" width="30" height="15" fill="#C4C4C4"/>
  <rect x="119" y="79" width="30" height="15" fill="#C4C4C4"/>
  <rect x="80" y="79" width="30" height="15" fill="#C4C4C4"/>
  <rect x="41" y="58" width="92" height="1" fill="#C4C4C4"/>
  <rect x="41" y="36" width="30" height="2" fill="white"/>
  <rect x="41" y="67" width="78" height="1" fill="#C4C4C4"/>
  <rect x="41" y="64" width="95" height="1" fill="#C4C4C4"/>
  <rect x="41" y="61" width="97" height="1" fill="#C4C4C4"/>
  <rect x="8" y="43" width="20" height="2" fill="#C4C4C4"/>
  <rect x="41" y="53" width="20" height="2" fill="#C4C4C4"/>
  <rect x="41" y="110" width="92" height="1" fill="#C4C4C4"/>
  <rect x="41" y="105" width="20" height="2" fill="#C4C4C4"/>
  <rect x="41" y="74" width="20" height="2" fill="#C4C4C4"/>
  <rect x="8" y="47" width="18" height="1" fill="#C4C4C4"/>
  <rect x="8" y="56" width="14" height="1" fill="#C4C4C4"/>
  <rect x="8" y="53" width="16" height="1" fill="#C4C4C4"/>
  <rect x="41" y="99" width="21" height="1" fill="#C4C4C4"/>
  <rect x="41" y="97" width="24" height="1" fill="#C4C4C4"/>
  <rect x="119" y="99" width="21" height="1" fill="#C4C4C4"/>
  <rect x="119" y="97" width="24" height="1" fill="#C4C4C4"/>
  <rect x="80" y="99" width="21" height="1" fill="#C4C4C4"/>
  <rect x="80" y="97" width="24" height="1" fill="#C4C4C4"/>
  <rect x="8" y="50" width="10" height="1" fill="#C4C4C4"/>
  <rect x="8" y="59" width="15" height="1" fill="#C4C4C4"/>
  <rect x="8" y="68" width="10" height="1" fill="#C4C4C4"/>
  <rect x="8" y="65" width="14" height="1" fill="#C4C4C4"/>
  <rect x="8" y="62" width="12" height="1" fill="#C4C4C4"/>
  </svg>